<?xml version="1.0" encoding="utf-8"?>
<!-- Generator: Adobe Illustrator 26.0.2, SVG Export Plug-In . SVG Version: 6.00 Build 0)  -->
<svg version="1.1" id="Layer_1" xmlns="http://www.w3.org/2000/svg" xmlns:xlink="http://www.w3.org/1999/xlink" x="0px" y="0px"
	 viewBox="0 0 64 64" style="enable-background:new 0 0 64 64;" xml:space="preserve">
<style type="text/css">
	.st0{fill:#FFFFFF;}
</style>
<g>
	<path class="st0" d="M3.4,33.7l0.1,0.5c0.3,3,1.4,12.1,11.9,12.1c3.5,0,6.6-1.3,8.6-3.7c2-2.3,2.8-5.5,2.2-8.7
		c-0.4-2.1-1-3.8-1.7-5.4c-0.9-2.2-1.7-4.3-1.7-7.8c0-2.9,0.9-9.6,9.2-9.6s9.2,6.7,9.2,9.6c0,3.5-0.8,5.6-1.7,7.8
		c-0.7,1.6-1.3,3.3-1.7,5.4c-0.5,3.2,0.3,6.3,2.2,8.7c2,2.4,5,3.7,8.6,3.7c10.5,0,11.5-9.1,11.9-12.1l0.1-0.5
		c0.3-2.6,0.5-2.6,1.6-2.6v-6.7c-4.8,0-7.6,2.9-8.2,8.6l-0.1,0.5c-0.5,4.3-1.3,6.1-5.2,6.1c-1.5,0-2.7-0.5-3.4-1.3
		c-0.7-0.8-1-2-0.7-3.2c0.2-1.4,0.7-2.6,1.3-4c1-2.5,2.2-5.5,2.2-10.3c0-8.1-4.9-16.3-15.9-16.3S16,12.6,16,20.8
		c0,4.8,1.2,7.9,2.2,10.3c0.6,1.4,1,2.6,1.3,4c0.2,1.2-0.1,2.4-0.7,3.2c-0.7,0.8-1.9,1.3-3.4,1.3c-3.9,0-4.7-1.8-5.2-6.1l0-0.5
		c-0.6-5.7-3.4-8.6-8.2-8.6v6.7C2.9,31.1,3.1,31.1,3.4,33.7z"/>
	<rect x="27.6" y="24.4" class="st0" width="3.1" height="5.5"/>
	<rect x="33.1" y="24.4" class="st0" width="3.2" height="5.5"/>
	<path class="st0" d="M60.1,49.7c-3.9,3.6-8.9,4.2-11.6,4.2c-5.1,0-9.5-2-12.5-5.5c-0.6-0.7-1.1-1.5-1.6-2.3l-1-1.8h-2.9l-1,1.8
		c-0.5,0.8-1,1.6-1.6,2.3c-3,3.6-7.5,5.5-12.5,5.5c-2.6,0-7.6-0.5-11.5-4.1L0,54c5.3,4.8,11.9,5.6,15.3,5.6c6.6,0,12.5-2.6,16.6-7.2
		c4.1,4.7,10,7.2,16.6,7.2c3.5,0,10.2-0.7,15.5-5.7L60.1,49.7z"/>
</g>
</svg>
